<svg width="914" height="400" fill="none" xmlns="http://www.w3.org/2000/svg"><style>#CL0 {fill: #00ACD7;}#CL1 {fill: #333;}@media (prefers-color-scheme: dark) {#CL0 {fill: #00ACD7;}#CL1 {fill: #EEE;}}</style><path d="M411.533 213.04v-3.78h4.48c.709 0 1.278-.233 1.708-.7.448-.467.672-1.073.672-1.82v-10.36h-7v-3.78h11.2v14.28c0 1.904-.56 3.407-1.68 4.508-1.12 1.101-2.651 1.652-4.592 1.652h-4.788Zm8.82-22.876c-.766 0-1.382-.196-1.848-.588-.448-.392-.672-.924-.672-1.596s.224-1.204.672-1.596c.466-.392 1.082-.588 1.848-.588.765 0 1.372.196 1.82.588.466.392.7.924.7 1.596s-.234 1.204-.7 1.596c-.448.392-1.055.588-1.82.588Zm11.161 18.116c-1.531 0-2.744-.439-3.64-1.316-.896-.896-1.344-2.063-1.344-3.5 0-1.045.243-1.941.728-2.688.504-.747 1.223-1.316 2.156-1.708.952-.411 2.091-.616 3.416-.616h3.024v-.98c0-.579-.205-1.027-.616-1.344-.392-.336-.961-.504-1.708-.504-.709 0-1.279.14-1.708.42-.411.28-.635.691-.672 1.232h-3.976c.056-1.512.653-2.716 1.792-3.612 1.139-.896 2.679-1.344 4.62-1.344 2.035 0 3.621.467 4.76 1.4 1.139.933 1.708 2.24 1.708 3.92V208h-4.06v-3.052h-.672l.756-.448c0 .765-.187 1.437-.56 2.016-.373.56-.905.999-1.596 1.316-.672.299-1.475.448-2.408.448Zm1.484-3.36c.877 0 1.568-.215 2.072-.644.523-.448.784-1.027.784-1.736v-1.568h-2.94c-.747 0-1.325.187-1.736.56-.392.355-.588.821-.588 1.4s.205 1.055.616 1.428c.429.373 1.027.56 1.792.56Zm10.181 3.08v-15.4h4.06v3.22h1.232l-1.372.98c0-1.381.401-2.473 1.204-3.276.803-.803 1.885-1.204 3.248-1.204 1.549 0 2.763.523 3.64 1.568.877 1.045 1.316 2.483 1.316 4.312v1.54h-4.2v-1.26c0-.803-.215-1.419-.644-1.848-.429-.448-1.036-.672-1.82-.672s-1.391.252-1.82.756c-.429.485-.644 1.185-.644 2.1V208h-4.2Z" id="CL1"/><path d="M464.84 208.28c-.784 0-1.419-.233-1.904-.7-.467-.485-.7-1.111-.7-1.876 0-.765.233-1.391.7-1.876.485-.485 1.12-.728 1.904-.728.784 0 1.409.243 1.876.728.485.485.728 1.111.728 1.876 0 .765-.243 1.391-.728 1.876-.467.467-1.092.7-1.876.7Zm11.525 4.76v-2.912h4.34c.821 0 1.456-.224 1.904-.672.448-.429.672-1.017.672-1.764v-.924l.056-2.408c-.317.859-.831 1.531-1.54 2.016-.691.467-1.54.7-2.548.7-1.568 0-2.819-.523-3.752-1.568-.915-1.064-1.372-2.501-1.372-4.312V198.2c0-1.792.457-3.22 1.372-4.284.933-1.064 2.184-1.596 3.752-1.596 1.008 0 1.857.243 2.548.728.709.467 1.223 1.139 1.54 2.016V192.6h3.416v15.176c0 1.624-.541 2.903-1.624 3.836-1.064.952-2.52 1.428-4.368 1.428h-4.396Zm4.06-8.96c.896 0 1.587-.261 2.072-.784.504-.541.756-1.288.756-2.24v-2.688c0-.952-.252-1.689-.756-2.212-.485-.541-1.176-.812-2.072-.812-.896 0-1.587.261-2.072.784-.485.504-.728 1.213-.728 2.128v2.912c0 .915.243 1.633.728 2.156.485.504 1.176.756 2.072.756Zm15.753 4.172c-1.979 0-3.547-.551-4.704-1.652-1.157-1.12-1.736-2.623-1.736-4.508v-3.584c0-1.904.579-3.407 1.736-4.508s2.725-1.652 4.704-1.652c1.979 0 3.547.551 4.704 1.652 1.157 1.101 1.736 2.604 1.736 4.508v3.584c0 1.885-.579 3.388-1.736 4.508-1.157 1.101-2.725 1.652-4.704 1.652Zm0-3.052c.933 0 1.652-.252 2.156-.756.523-.523.784-1.269.784-2.24v-3.808c0-.971-.261-1.708-.784-2.212-.504-.523-1.223-.784-2.156-.784s-1.661.261-2.184.784c-.504.504-.756 1.241-.756 2.212v3.808c0 .971.252 1.717.756 2.24.523.504 1.251.756 2.184.756Z" id="CL0"/></svg>