<svg width="914" height="400" fill="none" xmlns="http://www.w3.org/2000/svg">
  <path fill="#fff" d="M0 0h914v400H0z"/>
  <path d="M426.455 192.785c-.729 0-1.326-.214-1.791-.642a2.118 2.118 0 01-.697-1.6c0-.647.233-1.176.697-1.586.465-.41 1.062-.615 1.791-.615.739 0 1.336.205 1.791.615.465.41.698.939.698 1.586 0 .656-.233 1.194-.698 1.613-.455.42-1.052.629-1.791.629zm2.133 15.969c0 2.069-.506 3.723-1.517 4.963-1.012 1.239-2.47 1.859-4.375 1.859-.629 0-1.317-.137-2.065-.41v-3.391c.602.338 1.135.506 1.6.506 1.358 0 2.037-1.066 2.037-3.199V195h4.32v13.754zm14.725.246h-4.088v-2.01h-.054c-.939 1.568-2.329 2.352-4.17 2.352-1.358 0-2.429-.383-3.213-1.149-.775-.774-1.162-1.804-1.162-3.089 0-2.717 1.609-4.284 4.826-4.704l3.801-.505c0-1.532-.83-2.297-2.488-2.297-1.668 0-3.254.496-4.758 1.49v-3.254c.601-.31 1.422-.583 2.461-.82 1.048-.237 2-.356 2.857-.356 3.992 0 5.988 1.992 5.988 5.975V209zm-4.06-5.688v-.943l-2.543.328c-1.404.183-2.106.816-2.106 1.901 0 .492.169.897.506 1.216.347.31.811.465 1.395.465.811 0 1.472-.278 1.982-.834.511-.565.766-1.276.766-2.133zm16.051-4.416c-.519-.282-1.126-.423-1.818-.423-.939 0-1.673.346-2.201 1.039-.529.683-.793 1.618-.793 2.802V209h-4.321v-14h4.321v2.598h.054c.684-1.896 1.914-2.844 3.692-2.844.455 0 .811.055 1.066.164v3.978z" fill="#333"/>
  <path d="M458.012 209.273c-.365 0-.675-.127-.93-.382a1.268 1.268 0 01-.383-.93c0-.374.123-.688.369-.943.256-.256.57-.383.944-.383.182 0 .351.036.506.109.164.064.305.155.423.274.119.109.215.246.288.41a1.313 1.313 0 01-.288 1.463 1.214 1.214 0 01-.423.273 1.173 1.173 0 01-.506.109zm16.352-1.353c0 2.598-.593 4.521-1.778 5.769-1.175 1.258-2.994 1.887-5.455 1.887a9.598 9.598 0 01-4.347-1.025v-1.778c1.522.848 2.971 1.272 4.347 1.272 3.655 0 5.483-1.932 5.483-5.797v-1.682h-.055c-1.075 1.842-2.716 2.762-4.922 2.762-.866 0-1.659-.159-2.379-.478a5.142 5.142 0 01-1.832-1.381c-.51-.602-.907-1.331-1.189-2.188-.283-.866-.424-1.841-.424-2.926 0-1.148.15-2.192.451-3.13.301-.948.729-1.76 1.285-2.434a5.69 5.69 0 012.01-1.559c.793-.373 1.682-.56 2.666-.56 1.978 0 3.423.802 4.334 2.406h.055V195h1.75v12.92zm-1.75-7.424a4.37 4.37 0 00-1.19-3.021 4.105 4.105 0 00-1.339-.93 3.981 3.981 0 00-1.696-.356c-.729 0-1.39.142-1.982.424a4.356 4.356 0 00-1.504 1.203c-.41.52-.729 1.153-.957 1.901-.219.738-.328 1.572-.328 2.502 0 .857.105 1.631.314 2.324.21.693.506 1.281.889 1.764a4 4 0 001.381 1.121 4.128 4.128 0 001.818.396c.693 0 1.322-.123 1.887-.369a4.383 4.383 0 001.449-1.039c.401-.447.711-.966.93-1.559a5.65 5.65 0 00.328-1.941v-2.42zm11.43 8.832c-1.039 0-1.973-.173-2.803-.519a6.04 6.04 0 01-2.105-1.463 6.55 6.55 0 01-1.34-2.284c-.31-.884-.465-1.863-.465-2.939 0-1.167.164-2.21.492-3.131.328-.92.793-1.7 1.395-2.338a6.008 6.008 0 012.201-1.476c.857-.338 1.814-.506 2.871-.506 1.012 0 1.923.168 2.735.506a5.507 5.507 0 012.064 1.435c.565.629.998 1.395 1.299 2.297.301.902.451 1.928.451 3.076 0 1.094-.16 2.092-.479 2.994a6.653 6.653 0 01-1.339 2.311 5.981 5.981 0 01-2.133 1.504c-.839.355-1.787.533-2.844.533zm.137-13.139c-.766 0-1.459.133-2.078.397a4.39 4.39 0 00-1.6 1.162c-.437.501-.775 1.121-1.012 1.859-.237.73-.355 1.559-.355 2.489 0 .875.118 1.663.355 2.365.237.702.57 1.303.998 1.805.438.501.967.888 1.586 1.162.62.264 1.313.396 2.078.396.784 0 1.477-.127 2.079-.383a4.205 4.205 0 001.531-1.134c.419-.502.734-1.112.943-1.832.219-.72.328-1.541.328-2.461 0-1.887-.419-3.327-1.258-4.321-.838-1.002-2.037-1.504-3.595-1.504z" fill="#555"/>
</svg>
